<svg id="Layer_1" xmlns="http://www.w3.org/2000/svg" viewBox="0 0 300 57.3"><style>.st0{fill:#4E5051;} .st1{fill:#4CADC1;}</style><path class="st0" d="M84 34c-4.6 0-7.4-2.7-7.4-8.5S79.4 17 84 17c1.7 0 3.4.5 4.9 1.4l2.8-5.5c-2.5-1.3-5.3-2-8.3-2-8.7 0-15 5.4-15 14.6 0 9.3 6.3 14.6 15 14.6 2.5 0 4.9-.5 7.1-1.5l-2.8-5.4c-1.1.5-2.4.8-3.7.8zM209.3 24.5c1.2 0 2.3.4 3.1 1.3l1.7-4.7c-1.7-1-3.9-1.6-6.1-1.6-6 0-10.8 3.8-10.8 10.2 0 6.4 4.8 10.2 10.8 10.2 2.3 0 4.4-.6 6.1-1.6l-1.7-4.7c-.8.8-1.9 1.3-3.1 1.3-2.5 0-4.5-1.5-4.5-5.1 0-3.8 2.1-5.3 4.5-5.3zM102.5 19.5c-6 0-10.8 3.8-10.8 10.2 0 6.4 4.8 10.2 10.8 10.2 6 0 10.8-3.8 10.8-10.2 0-6.4-4.9-10.2-10.8-10.2zm0 15.9c-1.7 0-3.1-2.1-3.1-5.7s1.4-5.7 3.1-5.7c1.7 0 3.1 2.1 3.1 5.7s-1.4 5.7-3.1 5.7zM252.1 19.5c-6 0-10.8 3.8-10.8 10.2 0 6.4 4.8 10.2 10.8 10.2 6 0 10.8-3.8 10.8-10.2 0-6.4-4.8-10.2-10.8-10.2zm0 15.9c-1.7 0-3.1-2.1-3.1-5.7s1.4-5.7 3.1-5.7c1.7 0 3.1 2.1 3.1 5.7.1 3.6-1.3 5.7-3.1 5.7zM276.1 19.5c-6 0-10.8 3.8-10.8 10.2 0 6.4 4.8 10.2 10.8 10.2s10.8-3.8 10.8-10.2c0-6.4-4.8-10.2-10.8-10.2zm0 15.9c-1.7 0-3.1-2.1-3.1-5.7s1.4-5.7 3.1-5.7 3.1 2.1 3.1 5.7-1.4 5.7-3.1 5.7zM153.2 35.1c-1.9 0-3.1-1.1-3.5-3.2 6.4.2 10.4-2.5 10.4-6.3 0-3.7-3.4-6.2-7.5-6.2-6 0-10.8 3.8-10.8 10.2 0 6.4 4.3 10.2 10.3 10.2 5.7 0 9-4.3 9-4.3l-2-3.2s-2.9 2.8-5.9 2.8zm-.6-11.2c1.1 0 1.6.9 1.6 1.9 0 1.7-1.2 2.8-4.7 2.9.2-3 1.5-4.8 3.1-4.8zM137 32.3v-22h-7.4v12.4c-1.5-2-3.6-3.2-6-3.2-4.4 0-8 3.8-8 10.2 0 6.4 3.6 10.2 8 10.2 2.6 0 5-1.4 6.4-3.8.9 2.8 3.2 3.8 5.7 3.8s3.8-.7 3.8-.7l.5-5.3c.1 0-3 1.7-3-1.6zm-10.5 2.8c-1.7 0-3.1-2-3.1-5.5s1.4-5.5 3.1-5.5c1.7 0 3.1 2 3.1 5.5.1 3.5-1.3 5.5-3.1 5.5zM236.4 32.3v-7.4c0-3.3-1.1-5.4-4.6-5.4-2.8 0-5.4 1.4-6.7 3.8V10.2h-7.4v29h7.4v-6.9c0-6.4 2-8.1 3.1-8.1.8 0 1.2.6 1.2 1.9V33c0 5 2.8 6.9 6.1 6.9 2.5 0 3.8-.7 3.8-.7l.5-5.3c-.1 0-3.4 1.5-3.4-1.6zM297 32.3v-22h-7.4V33c0 5 2.9 6.9 6.2 6.9 2.5 0 3.8-.7 3.8-.7l.5-5.3c-.1 0-3.1 1.7-3.1-1.6zM187 22.2c-4.5-1.6-5.5-2.1-5.5-3.7 0-1.4 1-2.2 2.5-2.2 3.6 0 8.2 2.4 8.2 2.4l2.1-4.8s-3.3-3-9.8-3c-6.9 0-10.5 3.6-10.5 8.4 0 3.5 1.7 6.8 7.5 8.7 4.4 1.5 5.3 2.5 5.3 3.9 0 1.8-1.3 2.5-3.3 2.5-4.1 0-9-3.2-9-3.2l-2.5 4.9s4.9 4 11.4 4c7.3 0 11.1-3.7 11.1-9 .1-4-1-6.6-7.5-8.9z"/><g><path class="st1" d="M29.9 12.6v7l7.9 7.4-7.9 7.4v7L45.2 27zM24.1 34.4L16.2 27l7.9-7.4v-7L8.8 27l15.3 14.4z"/><path class="st1" d="M27 0C12.1 0 0 12.1 0 27s12.1 27 27 27 27-12.1 27-27S41.9 0 27 0zm0 49.2c-12.2 0-22.2-10-22.2-22.2S14.8 4.8 27 4.8 49.2 14.7 49.2 27 39.2 49.2 27 49.2z"/></g><g><path class="st0" d="M171.7 53.6c0-1.4 1-2 2.5-2 .6 0 1.1.1 1.5.3v-.1c0-.7-.4-1.1-1.3-1.1-.7 0-1.1.1-1.7.3l-.4-1.3c.7-.3 1.3-.5 2.4-.5 1 0 1.6.3 2.1.7.5.5.7 1.1.7 2v3.6h-1.7v-.7c-.4.5-1 .8-1.9.8-1.3-.1-2.2-.8-2.2-2zm4-.4v-.3c-.3-.1-.7-.2-1.1-.2-.7 0-1.2.3-1.2.8s.4.7 1 .7c.7.1 1.3-.4 1.3-1zM182.5 47.4h3.3c1.9 0 3.1 1.1 3.1 2.8 0 1.9-1.4 2.8-3.2 2.8h-1.3v2.4h-1.8v-8zm3.1 4c.9 0 1.4-.5 1.4-1.2 0-.8-.5-1.2-1.4-1.2h-1.4v2.5h1.4zM190 47h1.7v8.4H190V47zM193.4 53.2v-4h1.7v3.4c0 .8.4 1.2 1.1 1.2.7 0 1.1-.4 1.1-1.2v-3.4h1.7v6.1h-1.7v-.9c-.4.5-.9 1-1.8 1-1.4.1-2.1-.8-2.1-2.2zM200.5 49.2h1.7v1.2c.4-.8.9-1.4 2-1.4v1.8h-.1c-1.2 0-1.9.7-1.9 2.2v2.3h-1.7v-6.1zM204.7 53.6c0-1.4 1-2 2.5-2 .6 0 1.1.1 1.5.3v-.1c0-.7-.4-1.1-1.3-1.1-.7 0-1.1.1-1.7.3l-.4-1.3c.7-.3 1.3-.5 2.4-.5 1 0 1.6.3 2.1.7.5.5.7 1.1.7 2v3.6h-1.7v-.7c-.4.5-1 .8-1.9.8-1.3-.1-2.2-.8-2.2-2zm4-.4v-.3c-.3-.1-.7-.2-1.1-.2-.7 0-1.2.3-1.2.8s.4.7 1 .7c.7.1 1.3-.4 1.3-1zM211.9 47h1.7v8.4h-1.7V47zM214.8 54.6l.7-1.1c.7.5 1.4.7 1.9.7s.7-.2.7-.5c0-.4-.6-.5-1.3-.7-.9-.3-1.8-.7-1.8-1.8 0-1.2 1-1.9 2.2-1.9.8 0 1.6.3 2.3.7l-.7 1.2c-.6-.4-1.2-.6-1.7-.6-.4 0-.6.2-.6.4 0 .3.6.5 1.2.7.9.3 1.9.7 1.9 1.8 0 1.4-1 2-2.3 2-.7 0-1.7-.3-2.5-.9zM221.1 47h1.8v1.5h-1.8V47zm0 2.2h1.7v6.1h-1.7v-6.1zM224.5 56.6l.6-1.3c.6.4 1.3.6 2.1.6 1.2 0 1.8-.6 1.8-1.7v-.3c-.5.6-1.1 1-2 1-1.4 0-2.7-1-2.7-2.9 0-1.8 1.3-2.9 2.7-2.9 1 0 1.5.4 2 .9v-.8h1.7V54c0 1.1-.3 1.9-.8 2.4-.6.6-1.5.8-2.6.8-1 0-2-.2-2.8-.6zM229 52c0-.9-.7-1.4-1.5-1.4s-1.5.6-1.5 1.4c0 .8.6 1.4 1.5 1.4s1.5-.5 1.5-1.4zM232.2 47h1.7v3.1c.4-.5.9-1 1.8-1 1.3 0 2.1.9 2.1 2.3v4h-1.7V52c0-.8-.4-1.2-1.1-1.2-.7 0-1.1.4-1.1 1.2v3.4h-1.7V47zM239.7 53.6v-2.9h-.7v-1.5h.7v-1.6h1.7v1.6h1.4v1.5h-1.4v2.6c0 .4.2.6.6.6.3 0 .6-.1.9-.2v1.4c-.4.2-.8.4-1.4.4-1.1 0-1.8-.4-1.8-1.9zM247.3 52.3c0-1.8 1.3-3.2 3.2-3.2 1.2 0 1.9.4 2.5 1l-1.1 1.1c-.4-.4-.8-.7-1.4-.7-.9 0-1.5.8-1.5 1.7 0 .9.6 1.7 1.6 1.7.6 0 1-.3 1.4-.7l1 1c-.6.7-1.3 1.1-2.5 1.1-1.9.2-3.2-1.2-3.2-3zM253.6 52.3c0-1.8 1.4-3.2 3.3-3.2s3.3 1.4 3.3 3.2c0 1.8-1.4 3.2-3.3 3.2-1.8 0-3.3-1.4-3.3-3.2zm5 0c0-.9-.7-1.7-1.6-1.7-1 0-1.6.8-1.6 1.7 0 .9.7 1.7 1.6 1.7 1 0 1.6-.7 1.6-1.7zM261.5 49.2h1.7v.9c.4-.5.9-1 1.8-1 .8 0 1.4.4 1.7 1 .5-.6 1.2-1 2-1 1.3 0 2.1.8 2.1 2.3v4h-1.7V52c0-.8-.4-1.2-1-1.2s-1.1.4-1.1 1.2v3.4h-1.7V52c0-.8-.4-1.2-1-1.2-.7 0-1.1.4-1.1 1.2v3.4h-1.7v-6.2zM272.4 49.2h1.7v.9c.4-.6 1-1 1.9-1 1.4 0 2.8 1.1 2.8 3.2s-1.3 3.2-2.8 3.2c-.9 0-1.5-.4-1.9-.9v2.6h-1.7v-8zm4.7 3.1c0-1-.7-1.7-1.5-1.7s-1.5.7-1.5 1.7.7 1.7 1.5 1.7 1.5-.6 1.5-1.7zM279.8 53.6c0-1.4 1-2 2.5-2 .6 0 1.1.1 1.5.3v-.1c0-.7-.4-1.1-1.3-1.1-.7 0-1.1.1-1.7.3l-.4-1.3c.7-.3 1.3-.5 2.4-.5 1 0 1.6.3 2.1.7.5.5.7 1.1.7 2v3.6h-1.7v-.7c-.4.5-1 .8-1.9.8-1.2-.1-2.2-.8-2.2-2zm4-.4v-.3c-.3-.1-.7-.2-1.1-.2-.7 0-1.2.3-1.2.8s.4.7 1 .7c.8.1 1.3-.4 1.3-1zM287 49.2h1.7v.9c.4-.5.9-1 1.8-1 1.3 0 2.1.9 2.1 2.3v4h-1.7V52c0-.8-.4-1.2-1.1-1.2-.7 0-1.1.4-1.1 1.2v3.4H287v-6.2zM293.8 56.8l.6-1.3c.2.1.5.2.7.2.3 0 .5-.1.6-.4l-2.4-6.2h1.8l1.4 4.2 1.3-4.2h1.8l-2.4 6.3c-.5 1.2-1 1.7-2 1.7-.4.2-.9 0-1.4-.3z"/></g></svg>