<svg id="Layer_1" xmlns="http://www.w3.org/2000/svg" viewBox="0 0 189.6 100"><style>.st0{fill:#C82027;} .st1{fill:#12393D;}</style><path class="st0" d="M73.2 91.5v7.6l.6.1c1.7.3 3.5.5 5.2.7 1.5.1 3.1.2 4.6.1 1.5-.1 2.9-.4 4.4-.8 1.7-.5 3.2-1.3 4.5-2.4 1.2-1 2.1-2.3 2.6-3.8.9-2.4.9-5.2-.1-7.6-.5-1.3-1.3-2.4-2.4-3.3-1-.9-2.2-1.6-3.5-2L83.4 78c-.7-.3-1.2-.8-1.6-1.5-.3-.6-.2-1.2.1-1.7.1-.2.2-.4.4-.5.2-.2.4-.3.6-.5.1-.1.2-.1.3-.1.6-.3 1.3-.5 2-.6 1.2-.2 2.4-.2 3.6 0 1.4.2 2.8.4 4.2.8l.3.1v-7l-.5-.1c-1.4-.3-2.8-.6-4.3-.8-1.9-.2-3.8-.3-5.6 0-2.4.2-4.6 1.1-6.5 2.6-1.3 1-2.2 2.3-2.8 3.8-.8 2.3-.8 4.8 0 7.1.4 1.1 1.1 2.2 2 3 .8.7 1.6 1.4 2.6 1.9 1.2.7 2.6 1.2 3.9 1.5.5.1.9.3 1.3.4l.7.2c.1 0 .1.1.2.1.7.2 1.3.6 1.8 1.1.4.3.6.7.8 1.2.1.4.1.9 0 1.3-.2.7-.7 1.2-1.3 1.6-.7.4-1.4.6-2.2.7-1.1.2-2.2.2-3.4.2-1.5-.1-2.9-.3-4.4-.6-.8-.2-1.5-.3-2.3-.5l-.1-.2M42.2 98.8V90l-.2.1c-2 1-4.1 1.5-6.3 1.6-2.3.2-4.6-.5-6.4-1.9-1.3-1-2.3-2.4-2.8-3.9-.6-1.7-.6-3.5-.2-5.3.4-1.8 1.4-3.4 2.8-4.5 1.3-1.1 2.8-1.7 4.4-1.9 2.9-.3 5.8.2 8.4 1.6l.2.1V67l-.4-.1c-2.6-.8-5.3-1.2-8-1-2.5.1-4.9.6-7.1 1.6-2.3 1-4.3 2.6-5.8 4.5-4.9 6.2-5.1 15-.3 21.4 2.3 3 5.6 5.1 9.3 6 3.9.9 7.9.8 11.8-.4l.6-.2M61.9 99.4v-33h-8.3v33h8.3M184.8 95.5v-.4h-3.5v.4h1.5v3.9h.6v-3.9h1.4M185.2 99.4h.5v-3.5h.1l1.3 3.5h.5l1.4-3.6v3.6h.6v-4.3h-.9l-1.3 3.5-1.3-3.5h-.9v4.3"/><path class="st1" d="M0 40c.1 1 .5 2 1.3 2.7.8.7 1.8 1.1 2.8 1.1 1 0 2-.4 2.8-1.1.8-.7 1.2-1.7 1.3-2.7v-9.1c0-1.1-.5-2.1-1.3-2.8-.8-.7-1.8-1.1-2.8-1.1-1.1-.1-2.1.3-2.8 1-.8.8-1.3 1.8-1.3 2.8V40M22.7 40c.1 1 .5 2 1.3 2.7.8.7 1.8 1.1 2.8 1.1 1 0 2-.4 2.8-1.1.8-.7 1.2-1.7 1.3-2.7V19.5c0-1.1-.5-2.1-1.3-2.8-.8-.7-1.8-1.1-2.8-1.1-1.1 0-2.1.4-2.8 1.1-.8.7-1.2 1.7-1.3 2.8V40M45.3 48.2c.1 1 .5 2 1.3 2.7.8.7 1.8 1.1 2.8 1.1 1 0 2-.4 2.8-1.1.8-.7 1.2-1.7 1.3-2.7V3.9c0-1.1-.5-2.1-1.3-2.8C51.5.4 50.5 0 49.5 0c-1.1 0-2.1.4-2.8 1.1-.8.7-1.2 1.7-1.3 2.8v44.3M68.1 40c.1 1 .5 2 1.3 2.7.8.7 1.8 1.1 2.8 1.1 1 0 2-.4 2.8-1.1.8-.7 1.2-1.7 1.3-2.7V19.5c0-1.1-.5-2.1-1.3-2.8-.8-.7-1.8-1.1-2.8-1.1-1.1 0-2.1.4-2.8 1.1-.8.7-1.2 1.7-1.3 2.8V40M90.7 40c.1 1 .5 2 1.3 2.7.8.7 1.8 1.1 2.8 1.1 1 0 2-.4 2.8-1.1.8-.7 1.2-1.7 1.3-2.7v-9.1c0-1.1-.5-2.1-1.3-2.8-.8-.7-1.8-1.1-2.8-1.1-1.1 0-2.1.4-2.8 1.1-.8.7-1.2 1.7-1.3 2.8V40M113.4 40c.1 1 .5 2 1.3 2.7.8.7 1.8 1.1 2.8 1.1 1 0 2-.4 2.8-1.1.8-.7 1.2-1.7 1.3-2.7V19.5c0-1.1-.5-2.1-1.3-2.8-.8-.7-1.8-1.1-2.8-1.1-1.1 0-2.1.4-2.8 1.1-.8.7-1.2 1.7-1.3 2.8V40M136 48.2c.1 1 .5 2 1.3 2.7.8.7 1.8 1.1 2.8 1.1 1 0 2-.4 2.8-1.1.8-.7 1.2-1.7 1.3-2.7V3.9c0-1.1-.5-2.1-1.3-2.8-.8-.7-1.8-1.1-2.8-1.1-1.1 0-2.1.4-2.8 1.1-.8.7-1.2 1.7-1.3 2.8v44.3M158.7 40c.1 1 .5 2 1.3 2.7.8.7 1.8 1.1 2.8 1.1 1 0 2-.4 2.8-1.1.8-.7 1.2-1.7 1.3-2.7V19.5c0-1.1-.5-2.1-1.3-2.8-.8-.7-1.8-1.1-2.8-1.1-1.1 0-2.1.4-2.8 1.1-.8.7-1.2 1.7-1.3 2.8V40M181.4 40c.1 1 .5 2 1.3 2.7.8.7 1.8 1.1 2.8 1.1 1 0 2-.4 2.8-1.1.8-.7 1.2-1.7 1.3-2.7v-9.1c0-1.1-.5-2.1-1.3-2.8-.8-.7-1.8-1.1-2.8-1.1-1.1 0-2.1.4-2.8 1.1-.8.7-1.2 1.7-1.3 2.8V40"/><path class="st0" d="M128.9 98.8V90l-.2.1c-2 1-4.1 1.5-6.3 1.6-2.3.2-4.6-.5-6.4-1.9-1.3-1-2.3-2.4-2.8-3.9-.6-1.7-.6-3.5-.2-5.3.4-1.8 1.4-3.4 2.8-4.5 1.3-1.1 2.8-1.7 4.4-1.9 2.9-.3 5.8.2 8.4 1.6l.2.1V67l-.4-.1c-2.6-.8-5.3-1.2-8-1-2.5.1-4.9.6-7.1 1.6-2.3 1-4.3 2.6-5.8 4.5-4.9 6.2-5.1 15-.3 21.4 2.3 3 5.6 5.1 9.3 6 3.9.9 7.9.8 11.8-.4l.6-.2M137.7 82.9c.1 5.2 2.5 10.1 6.6 13.3 4.1 3.2 9.4 4.4 14.5 3.3 6.9-1.3 12.3-6.7 13.5-13.6 1.2-6.9-1.9-13.9-8-17.5-5.3-3.3-12-3.5-17.5-.5-5.5 3.1-9 8.8-9.1 15m12.1-6.7c1.8-1.4 4.1-2.1 6.4-1.8 2.3.3 4.4 1.4 5.8 3.2 1.4 1.8 2.1 4.1 1.8 6.4-.3 2.3-1.4 4.4-3.2 5.8-1.8 1.4-4.1 2.1-6.4 1.8-2.3-.3-4.4-1.4-5.8-3.2-1.4-1.8-2.1-4.1-1.8-6.4.2-2.3 1.4-4.4 3.2-5.8"/></svg>