<svg id="Layer_1" xmlns="http://www.w3.org/2000/svg" viewBox="0 0 127.2 40"><style>.st0{fill:#557EBF;} .st1{fill:#EA4535;} .st2{fill:#F9BC15;} .st3{fill:#36A852;}</style><g id="XMLID_11_"><path id="XMLID_10_" class="st0" d="M15.9 14.2v4.3h10.2c-.3 2.4-1.1 4.2-2.3 5.4-1.5 1.5-3.8 3.1-7.9 3.1-6.3.1-11.2-5-11.2-11.3S9.6 4.3 15.9 4.3c3.4 0 5.9 1.3 7.7 3.1l3-3C24.1 1.9 20.7 0 15.9 0 7.3 0 0 7 0 15.7s7.3 15.7 15.9 15.7c4.7 0 8.2-1.5 10.9-4.4 2.8-2.8 3.7-6.8 3.7-10 0-1-.1-1.9-.2-2.7H15.9z"/><path id="XMLID_24_" class="st1" d="M43.3 10.8c-5.6 0-10.1 4.2-10.1 10.1 0 5.8 4.6 10.1 10.1 10.1s10.1-4.3 10.1-10.1c0-5.9-4.5-10.1-10.1-10.1zm0 16.2c-3.1 0-5.7-2.5-5.7-6.1 0-3.6 2.6-6.1 5.7-6.1s5.7 2.5 5.7 6.1c0 3.6-2.6 6.1-5.7 6.1z"/><path id="XMLID_21_" class="st0" d="M93 13h-.2c-1-1.2-2.9-2.3-5.3-2.3-5 0-9.4 4.4-9.4 10.1 0 5.7 4.4 10.1 9.4 10.1 2.4 0 4.3-1.1 5.3-2.3h.2V30c0 4-2 6-5.4 6-2.7 0-4.4-1.9-5.1-3.6L78.7 34c1.1 2.7 4.1 6 9 6 5.2 0 9.6-3.1 9.6-10.5V11.3H93V13zm-5.1 14c-3.1 0-5.4-2.6-5.4-6.1 0-3.6 2.3-6.1 5.4-6.1 3 0 5.4 2.6 5.4 6.2 0 3.4-2.3 6-5.4 6z"/><path id="XMLID_18_" class="st2" d="M65.9 10.8c-5.6 0-10.1 4.2-10.1 10.1 0 5.8 4.6 10.1 10.1 10.1S76 26.7 76 20.9c.1-5.9-4.5-10.1-10.1-10.1zm0 16.2c-3.1 0-5.7-2.5-5.7-6.1 0-3.6 2.6-6.1 5.7-6.1s5.7 2.5 5.7 6.1c0 3.6-2.6 6.1-5.7 6.1z"/><path id="XMLID_3_" class="st3" d="M100.7.4h4.4V31h-4.4V.4z"/><path id="XMLID_14_" class="st1" d="M118.6 27c-2.3 0-3.9-1-4.9-3.1l13.5-5.6-.5-1.1c-.8-2.3-3.4-6.4-8.6-6.4-5.2 0-9.5 4.1-9.5 10.1 0 5.7 4.3 10.1 10 10.1 4.6 0 7.3-2.8 8.4-4.5l-3.4-2.3c-1.2 1.7-2.8 2.8-5 2.8zm-.3-12.4c1.8 0 3.3.9 3.8 2.2l-9.1 3.8c0-4.3 3-6 5.3-6z"/></g></svg>