<svg id="Layer_1" xmlns="http://www.w3.org/2000/svg" viewBox="0 0 300 33.6"><style>.st0{fill-rule:evenodd;clip-rule:evenodd;fill:#040607;}</style><path class="st0" d="M2.6 24.3v-8.1h4.9c1.2 0 2.6 0 3.5.8 1.1.8 1.7 2.1 1.7 3.4 0 1.2-.5 2.3-1.4 3.1-.9.8-2.3.9-3.5.9H2.6v-.1zm0-10.2V6.9h4.9c1.1 0 2 0 2.9.5 1.1.6 1.7 1.7 1.7 2.9 0 1.1-.6 2.3-1.4 2.9-1.1.9-2.6.9-4 .9H2.6zM8 26.4c2 0 3.7-.2 5.2-1.4s2.1-2.8 2.1-4.6c0-2.8-1.8-4.9-4.4-5.5 2.3-.6 3.8-2.5 3.8-4.8 0-1.8-.9-3.4-2.3-4.3-1.5-.9-2.7-1-4.4-1H0v21.6h8zM20.4 18.3c0-1.4.2-2.9.8-4 .8-1.4 2.1-2.3 3.7-2.3 1.4 0 2.8.8 3.5 1.8.8 1.4.9 2.9.9 4.4 0 1.4-.2 2.8-.8 4.1-.8 1.4-2 2.3-3.7 2.3-1.5 0-2.9-.8-3.5-2-.7-1.3-.9-2.9-.9-4.3zm-2.8 0c0 4.1 2.1 8.4 6.9 8.4 4.9 0 7.5-4 7.5-8.4 0-4.1-2.3-8.3-7.1-8.3-4.7 0-7.3 3.8-7.3 8.3zM37.1 18.3c0-1.4.2-2.9.8-4 .6-1.4 2.1-2.3 3.7-2.3 1.4 0 2.6.8 3.4 1.8.9 1.4 1.1 2.9 1.1 4.4 0 1.4-.2 2.8-.8 4.1-.8 1.4-2.1 2.3-3.7 2.3s-2.9-.8-3.5-2c-.8-1.3-1-2.9-1-4.3zm-2.7 0c0 4.1 2.1 8.4 6.9 8.4 4.9 0 7.4-4 7.4-8.4 0-4.1-2.3-8.3-6.9-8.3-4.8 0-7.4 3.8-7.4 8.3zM62 11.8l-8.8 12.6H62v2H50.2v-2l8.5-12.1h-7.8v-1.8H62v1.3zM75.9.2h2v33.3h-2V.2zM101.8 18h-6.6l3.2-10.3 3.4 10.3zm-1.6-13.2h-2.9l-7.1 21.6h2.3l2-6.3h8l2.1 6.3h2.6l-7-21.6zM125.5 16.7c0-2.5 1.8-4.9 4.6-4.9s4.4 2.3 4.3 4.9h-8.9zm9 4.9c-.8 1.8-2.3 3.1-4.3 3.1-1.7 0-3.5-1.1-4.3-2.6-.6-1.1-.6-2.3-.6-3.5H137c.2-4.4-2-8.6-6.9-8.6-4.8 0-7.4 4-7.4 8.4s2.5 8.3 7.2 8.3c3.1 0 5.8-1.8 6.9-4.8l-2.3-.3zM142.8 13.1h.2c.8-1.7 2.8-3.1 4.9-3.1 2 0 3.5.8 4.6 2.5.8 1.4.6 3.5.6 5.1v8.9h-2.5v-10c0-.9.2-2-.3-2.9-.6-.9-1.7-1.4-2.8-1.4-1.4 0-2.5.6-3.4 1.5-.9 1.2-1.2 2.8-1.2 4.3v8.4h-2.5v-16h2.3v2.7h.1zM289.7 13.1c.8-1.7 2.8-3.1 4.9-3.1 2 0 3.5.8 4.6 2.5.8 1.4.8 3.5.8 5.1v8.9h-2.5v-10c0-.9 0-2-.5-2.9-.6-.9-1.7-1.4-2.8-1.4-1.2 0-2.5.6-3.2 1.5-1.1 1.2-1.4 2.8-1.4 4.3v8.4h-2.5v-16h2.5v2.7h.1zM167.2.2h2v33.3h-2V.2zM196.9 26.4V16H187v10.4h-2.5V4.8h2.5V14h9.9V4.8h2.6v21.6h-2.6zM213.8 19.3c0 2.8-2 5.4-4.9 5.4-2 0-3.5-.8-3.5-2.8 0-3.2 3.5-3.7 6.4-3.7h2v1.1zm-2-2.9c-2 0-4.3.2-6 .9-1.7.8-2.9 2.6-2.9 4.4 0 3.2 2.5 4.9 5.5 4.9 2.5 0 4.3-1.1 5.4-3.4l.3 3.1h2.5c-.3-1.1-.5-2.3-.5-3.4v-6.3c0-1.7 0-3.8-1.2-5.2-1.2-1.4-3.1-1.5-4.8-1.5-2.9 0-6.3 1.1-6.7 4.4l2.1.3c.5-2.1 2.5-2.8 4.3-2.8 2.8 0 4 .9 4 3.8v.6h-2v.2zM222.7 10.5v2.8c.8-1.7 2.6-3.2 4.8-3.2 2.3 0 4.1 1.7 4.4 3.5.9-2 2.8-3.5 5.2-3.5 1.7 0 3.2.9 4 2.3s.8 3.1.8 4.6v9.5h-2.5V17c0-1.1 0-2.3-.5-3.2-.5-1.1-1.5-1.7-2.6-1.7-1.2 0-2.5.8-3.1 1.8-.9 1.2-.9 2.5-.9 4v8.6h-2.5V16.3c0-.9 0-2-.5-2.8-.6-.9-1.7-1.5-2.8-1.5-1.1 0-2.1.8-2.9 1.5-.8 1.1-.9 2.5-.9 3.7v9.2h-2.5v-16h2.5v.1zM246.3 10.5h2.5v16h-2.5v-16zm-.1-5.7h2.8v2.8h-2.8V4.8zM253.8 4.8h2.3v21.6h-2.3V4.8zM109.7 4.8h2.3v21.6h-2.3V4.8zM117 4.8h2.3v21.6H117V4.8zM268.6 26.4l-2.3.3c-3.5 0-4.6-2.1-4.6-5.2v-9.2h-2.8v-2h2.8v-4l2.5-.2v4.1h3.5v2h-3.5v9.5c0 1.8.6 2.9 2.6 2.9l1.8-.2v2zM272.5 18.3c0-1.4.2-2.9.8-4 .6-1.4 2-2.3 3.5-2.3s2.8.8 3.5 1.8c.9 1.4 1.1 2.9 1.1 4.4 0 1.4-.2 2.8-.8 4.1-.8 1.4-2.1 2.3-3.8 2.3-1.4 0-2.8-.8-3.4-2-.7-1.3-.9-2.9-.9-4.3zm-2.7 0c0 4.1 2.1 8.4 6.9 8.4 4.9 0 7.4-4 7.4-8.4 0-4.1-2.3-8.3-6.9-8.3-5 0-7.4 3.8-7.4 8.3z"/></svg>