<svg id="Layer_1" xmlns="http://www.w3.org/2000/svg" viewBox="0 0 147.9 40"><style>.st0{fill:#100E0F;}</style><path class="st0" d="M28.5 17.1H16.1c-.3 0-.6.3-.6.6v6.1c0 .3.3.6.6.6h4.8v7.5s-1.1.4-4.1.4c-3.6 0-8.5-1.3-8.5-12.2 0-10.9 5.2-12.3 10-12.3 4.2 0 6 .7 7.2 1.1.4.1.7-.2.7-.6l1.4-5.9c0-.2-.1-.3-.2-.5C26.9 1.6 24 0 16.8 0 8.5 0 0 3.5 0 20.5S9.7 40 18 40c6.8 0 10.9-2.9 10.9-2.9.2-.1.2-.3.2-.4v-19c0-.3-.3-.6-.6-.6zM92.5 2c0-.3-.3-.6-.6-.6h-7c-.3 0-.6.3-.6.6v13.5H73.5V2c0-.3-.3-.6-.6-.6h-7c-.3 0-.6.3-.6.6v36.6c0 .3.3.6.6.6h7c.3 0 .6-.3.6-.6V23h10.9v15.7c0 .3.3.6.6.6h7c.3 0 .6-.3.6-.6V2z"/><ellipse class="st0" cx="37.2" cy="6.8" rx="4.5" ry="4.6"/><path class="st0" d="M41.2 30.9V14c0-.3-.3-.6-.6-.6h-7c-.3 0-.6.3-.6.7v24.2c0 .7.4.9 1 .9h6.3c.7 0 .9-.3.9-.9v-7.4zM119.1 13.5h-6.9c-.3 0-.6.3-.6.6v18s-1.8 1.3-4.3 1.3-3.2-1.1-3.2-3.6V14.1c0-.3-.3-.6-.6-.6h-7c-.3 0-.6.3-.6.6v16.8c0 7.3 4.1 9.1 9.6 9.1 4.6 0 8.3-2.5 8.3-2.5s.2 1.3.3 1.5c.1.2.3.3.5.3h4.5c.3 0 .6-.3.6-.6V14.1c0-.3-.2-.6-.6-.6zM138.1 12.7c-3.9 0-6.6 1.8-6.6 1.8V2c0-.3-.3-.6-.6-.6h-7c-.3 0-.6.3-.6.6v36.6c0 .3.3.6.6.6h4.9c.2 0 .4-.1.5-.3.1-.2.3-1.7.3-1.7s2.9 2.7 8.3 2.7c6.4 0 10-3.2 10-14.5s-5.8-12.7-9.8-12.7zm-2.7 20.6c-2.4-.1-4-1.2-4-1.2V20.5s1.6-1 3.6-1.2c2.5-.2 4.9.5 4.9 6.5-.1 6.4-1.1 7.6-4.5 7.5zM61.3 13.4h-5.2V6.5c0-.3-.1-.4-.4-.4h-7.2c-.3 0-.4.1-.4.4v7.2s-3.6.9-3.8.9c-.2.1-.4.3-.4.6v4.5c0 .3.3.6.6.6H48v10.8c0 8 5.6 8.8 9.5 8.8 1.7 0 3.8-.6 4.2-.7.2-.1.3-.3.3-.5v-5c0-.3-.3-.6-.6-.6s-1.1.1-1.9.1c-2.6 0-3.5-1.2-3.5-2.8V20.1h5.2c.3 0 .6-.3.6-.6V14c.1-.3-.2-.6-.5-.6z"/></svg>